<?xml version='1.0' encoding='UTF-8'?>
<svg width="33mm" height="33mm" version="1.1" viewBox="0 0 33 33" xmlns="http://www.w3.org/2000/svg"><path d="M2,2H3V3H2zM3,2H4V3H3zM4,2H5V3H4zM5,2H6V3H5zM6,2H7V3H6zM7,2H8V3H7zM8,2H9V3H8zM10,2H11V3H10zM11,2H12V3H11zM15,2H16V3H15zM16,2H17V3H16zM17,2H18V3H17zM19,2H20V3H19zM20,2H21V3H20zM24,2H25V3H24zM25,2H26V3H25zM26,2H27V3H26zM27,2H28V3H27zM28,2H29V3H28zM29,2H30V3H29zM30,2H31V3H30zM2,3H3V4H2zM8,3H9V4H8zM10,3H11V4H10zM15,3H16V4H15zM16,3H17V4H16zM17,3H18V4H17zM19,3H20V4H19zM21,3H22V4H21zM22,3H23V4H22zM24,3H25V4H24zM30,3H31V4H30zM2,4H3V5H2zM4,4H5V5H4zM5,4H6V5H5zM6,4H7V5H6zM8,4H9V5H8zM10,4H11V5H10zM12,4H13V5H12zM13,4H14V5H13zM14,4H15V5H14zM15,4H16V5H15zM16,4H17V5H16zM22,4H23V5H22zM24,4H25V5H24zM26,4H27V5H26zM27,4H28V5H27zM28,4H29V5H28zM30,4H31V5H30zM2,5H3V6H2zM4,5H5V6H4zM5,5H6V6H5zM6,5H7V6H6zM8,5H9V6H8zM11,5H12V6H11zM14,5H15V6H14zM16,5H17V6H16zM17,5H18V6H17zM19,5H20V6H19zM21,5H22V6H21zM22,5H23V6H22zM24,5H25V6H24zM26,5H27V6H26zM27,5H28V6H27zM28,5H29V6H28zM30,5H31V6H30zM2,6H3V7H2zM4,6H5V7H4zM5,6H6V7H5zM6,6H7V7H6zM8,6H9V7H8zM10,6H11V7H10zM11,6H12V7H11zM13,6H14V7H13zM15,6H16V7H15zM17,6H18V7H17zM19,6H20V7H19zM20,6H21V7H20zM21,6H22V7H21zM24,6H25V7H24zM26,6H27V7H26zM27,6H28V7H27zM28,6H29V7H28zM30,6H31V7H30zM2,7H3V8H2zM8,7H9V8H8zM13,7H14V8H13zM15,7H16V8H15zM16,7H17V8H16zM19,7H20V8H19zM22,7H23V8H22zM24,7H25V8H24zM30,7H31V8H30zM2,8H3V9H2zM3,8H4V9H3zM4,8H5V9H4zM5,8H6V9H5zM6,8H7V9H6zM7,8H8V9H7zM8,8H9V9H8zM10,8H11V9H10zM12,8H13V9H12zM14,8H15V9H14zM16,8H17V9H16zM18,8H19V9H18zM20,8H21V9H20zM22,8H23V9H22zM24,8H25V9H24zM25,8H26V9H25zM26,8H27V9H26zM27,8H28V9H27zM28,8H29V9H28zM29,8H30V9H29zM30,8H31V9H30zM12,9H13V10H12zM16,9H17V10H16zM21,9H22V10H21zM22,9H23V10H22zM2,10H3V11H2zM5,10H6V11H5zM6,10H7V11H6zM7,10H8V11H7zM8,10H9V11H8zM9,10H10V11H9zM10,10H11V11H10zM12,10H13V11H12zM15,10H16V11H15zM16,10H17V11H16zM17,10H18V11H17zM18,10H19V11H18zM19,10H20V11H19zM21,10H22V11H21zM23,10H24V11H23zM26,10H27V11H26zM28,10H29V11H28zM29,10H30V11H29zM30,10H31V11H30zM2,11H3V12H2zM3,11H4V12H3zM5,11H6V12H5zM7,11H8V12H7zM9,11H10V12H9zM11,11H12V12H11zM14,11H15V12H14zM16,11H17V12H16zM19,11H20V12H19zM20,11H21V12H20zM25,11H26V12H25zM26,11H27V12H26zM28,11H29V12H28zM29,11H30V12H29zM4,12H5V13H4zM6,12H7V13H6zM8,12H9V13H8zM10,12H11V13H10zM11,12H12V13H11zM16,12H17V13H16zM19,12H20V13H19zM24,12H25V13H24zM26,12H27V13H26zM28,12H29V13H28zM3,13H4V14H3zM4,13H5V14H4zM9,13H10V14H9zM14,13H15V14H14zM16,13H17V14H16zM17,13H18V14H17zM19,13H20V14H19zM20,13H21V14H20zM21,13H22V14H21zM22,13H23V14H22zM23,13H24V14H23zM27,13H28V14H27zM30,13H31V14H30zM2,14H3V15H2zM5,14H6V15H5zM6,14H7V15H6zM7,14H8V15H7zM8,14H9V15H8zM10,14H11V15H10zM11,14H12V15H11zM13,14H14V15H13zM15,14H16V15H15zM16,14H17V15H16zM22,14H23V15H22zM23,14H24V15H23zM24,14H25V15H24zM25,14H26V15H25zM30,14H31V15H30zM2,15H3V16H2zM4,15H5V16H4zM5,15H6V16H5zM13,15H14V16H13zM14,15H15V16H14zM20,15H21V16H20zM22,15H23V16H22zM24,15H25V16H24zM25,15H26V16H25zM26,15H27V16H26zM27,15H28V16H27zM28,15H29V16H28zM29,15H30V16H29zM30,15H31V16H30zM3,16H4V17H3zM8,16H9V17H8zM9,16H10V17H9zM10,16H11V17H10zM12,16H13V17H12zM16,16H17V17H16zM17,16H18V17H17zM20,16H21V17H20zM21,16H22V17H21zM22,16H23V17H22zM28,16H29V17H28zM30,16H31V17H30zM2,17H3V18H2zM9,17H10V18H9zM11,17H12V18H11zM13,17H14V18H13zM15,17H16V18H15zM16,17H17V18H16zM18,17H19V18H18zM25,17H26V18H25zM28,17H29V18H28zM30,17H31V18H30zM4,18H5V19H4zM5,18H6V19H5zM6,18H7V19H6zM8,18H9V19H8zM9,18H10V19H9zM10,18H11V19H10zM13,18H14V19H13zM17,18H18V19H17zM19,18H20V19H19zM25,18H26V19H25zM27,18H28V19H27zM2,19H3V20H2zM4,19H5V20H4zM7,19H8V20H7zM9,19H10V20H9zM10,19H11V20H10zM11,19H12V20H11zM20,19H21V20H20zM21,19H22V20H21zM22,19H23V20H22zM26,19H27V20H26zM28,19H29V20H28zM29,19H30V20H29zM2,20H3V21H2zM3,20H4V21H3zM4,20H5V21H4zM6,20H7V21H6zM8,20H9V21H8zM9,20H10V21H9zM10,20H11V21H10zM11,20H12V21H11zM12,20H13V21H12zM14,20H15V21H14zM15,20H16V21H15zM16,20H17V21H16zM18,20H19V21H18zM19,20H20V21H19zM21,20H22V21H21zM23,20H24V21H23zM24,20H25V21H24zM26,20H27V21H26zM27,20H28V21H27zM30,20H31V21H30zM2,21H3V22H2zM3,21H4V22H3zM5,21H6V22H5zM6,21H7V22H6zM7,21H8V22H7zM12,21H13V22H12zM13,21H14V22H13zM15,21H16V22H15zM17,21H18V22H17zM18,21H19V22H18zM20,21H21V22H20zM23,21H24V22H23zM24,21H25V22H24zM25,21H26V22H25zM26,21H27V22H26zM27,21H28V22H27zM28,21H29V22H28zM2,22H3V23H2zM3,22H4V23H3zM5,22H6V23H5zM8,22H9V23H8zM11,22H12V23H11zM12,22H13V23H12zM15,22H16V23H15zM18,22H19V23H18zM19,22H20V23H19zM22,22H23V23H22zM23,22H24V23H23zM24,22H25V23H24zM25,22H26V23H25zM26,22H27V23H26zM27,22H28V23H27zM28,22H29V23H28zM29,22H30V23H29zM10,23H11V24H10zM11,23H12V24H11zM13,23H14V24H13zM15,23H16V24H15zM18,23H19V24H18zM20,23H21V24H20zM22,23H23V24H22zM26,23H27V24H26zM27,23H28V24H27zM2,24H3V25H2zM3,24H4V25H3zM4,24H5V25H4zM5,24H6V25H5zM6,24H7V25H6zM7,24H8V25H7zM8,24H9V25H8zM10,24H11V25H10zM11,24H12V25H11zM12,24H13V25H12zM13,24H14V25H13zM15,24H16V25H15zM17,24H18V25H17zM19,24H20V25H19zM21,24H22V25H21zM22,24H23V25H22zM24,24H25V25H24zM26,24H27V25H26zM27,24H28V25H27zM2,25H3V26H2zM8,25H9V26H8zM10,25H11V26H10zM11,25H12V26H11zM15,25H16V26H15zM18,25H19V26H18zM19,25H20V26H19zM22,25H23V26H22zM26,25H27V26H26zM29,25H30V26H29zM2,26H3V27H2zM4,26H5V27H4zM5,26H6V27H5zM6,26H7V27H6zM8,26H9V27H8zM10,26H11V27H10zM11,26H12V27H11zM15,26H16V27H15zM18,26H19V27H18zM21,26H22V27H21zM22,26H23V27H22zM23,26H24V27H23zM24,26H25V27H24zM25,26H26V27H25zM26,26H27V27H26zM27,26H28V27H27zM2,27H3V28H2zM4,27H5V28H4zM5,27H6V28H5zM6,27H7V28H6zM8,27H9V28H8zM10,27H11V28H10zM11,27H12V28H11zM16,27H17V28H16zM17,27H18V28H17zM18,27H19V28H18zM20,27H21V28H20zM22,27H23V28H22zM23,27H24V28H23zM29,27H30V28H29zM2,28H3V29H2zM4,28H5V29H4zM5,28H6V29H5zM6,28H7V29H6zM8,28H9V29H8zM12,28H13V29H12zM14,28H15V29H14zM15,28H16V29H15zM16,28H17V29H16zM17,28H18V29H17zM20,28H21V29H20zM22,28H23V29H22zM23,28H24V29H23zM25,28H26V29H25zM26,28H27V29H26zM28,28H29V29H28zM29,28H30V29H29zM30,28H31V29H30zM2,29H3V30H2zM8,29H9V30H8zM13,29H14V30H13zM15,29H16V30H15zM17,29H18V30H17zM18,29H19V30H18zM23,29H24V30H23zM27,29H28V30H27zM28,29H29V30H28zM30,29H31V30H30zM2,30H3V31H2zM3,30H4V31H3zM4,30H5V31H4zM5,30H6V31H5zM6,30H7V31H6zM7,30H8V31H7zM8,30H9V31H8zM10,30H11V31H10zM12,30H13V31H12zM15,30H16V31H15zM17,30H18V31H17zM21,30H22V31H21zM22,30H23V31H22zM24,30H25V31H24zM26,30H27V31H26zM27,30H28V31H27z" id="qr-path" fill="#2E3734" fill-opacity="1" fill-rule="nonzero" stroke="none"/></svg>